<?xml version="1.0" encoding="UTF-8" standalone="no"?>
<!DOCTYPE svg PUBLIC "-//W3C//DTD SVG 1.1//EN" "http://www.w3.org/Graphics/SVG/1.1/DTD/svg11.dtd">
<svg xmlns="http://www.w3.org/2000/svg" version="1.1" viewBox="0.00 0.00 351.00 347.00" width="351.00" height="347.00">
<path fill="#15171c" d="
  M 172.30 26.97
  C 171.49 29.91 170.32 38.34 173.67 40.18
  C 176.38 41.68 178.81 39.55 180.62 37.19
  A 0.95 0.95 0.0 0 1 181.69 36.87
  L 186.19 38.47
  A 1.40 1.39 19.7 0 1 187.04 40.25
  C 183.34 50.61 165.04 49.43 164.07 37.51
  C 163.81 34.19 163.55 28.43 164.83 25.26
  C 167.11 19.59 173.77 18.10 179.12 19.30
  Q 183.59 20.31 186.89 24.70
  A 1.92 1.92 0.0 0 1 186.00 27.66
  L 181.15 29.38
  A 0.61 0.61 0.0 0 1 180.39 29.07
  Q 178.06 24.22 172.99 26.20
  A 1.14 1.14 0.0 0 0 172.30 26.97
  Z"
/>
<path fill="#15171c" d="
  M 222.4705 44.5086
  A 10.04 10.04 0.0 0 1 210.2239 51.6936
  L 206.9531 50.8416
  A 10.04 10.04 0.0 0 1 199.7681 38.5950
  L 201.7695 30.9114
  A 10.04 10.04 0.0 0 1 214.0161 23.7264
  L 217.2869 24.5784
  A 10.04 10.04 0.0 0 1 224.4719 36.8250
  L 222.4705 44.5086
  Z
  M 217.2315 35.3462
  A 3.74 3.74 0.0 0 0 214.6431 30.7337
  L 213.6034 30.4414
  A 3.74 3.74 0.0 0 0 208.9909 33.0299
  L 206.9885 40.1538
  A 3.74 3.74 0.0 0 0 209.5769 44.7663
  L 210.6166 45.0586
  A 3.74 3.74 0.0 0 0 215.2291 42.4701
  L 217.2315 35.3462
  Z"
/>
<path fill="#15171c" d="
  M 115.46 50.23
  Q 114.32 50.94 115.08 52.06
  L 115.87 53.25
  A 0.87 0.86 60.1 0 0 116.96 53.55
  L 126.04 49.26
  A 1.19 1.19 0.0 0 1 127.62 49.82
  L 129.29 53.26
  A 1.53 1.52 64.7 0 1 128.57 55.30
  L 113.30 62.52
  A 1.11 1.10 -25.3 0 1 111.83 62.00
  L 101.29 40.18
  Q 100.56 38.67 102.07 37.95
  L 117.19 30.71
  A 0.96 0.95 -25.0 0 1 118.47 31.17
  L 120.43 35.48
  A 0.86 0.86 0.0 0 1 120.03 36.61
  Q 115.72 38.75 111.56 40.79
  Q 109.97 41.56 110.88 43.18
  A 1.69 1.68 -27.0 0 0 113.07 43.89
  L 119.49 40.85
  A 1.04 1.03 53.4 0 1 120.62 41.02
  C 122.16 42.42 124.03 45.95 121.13 47.24
  Q 118.05 48.60 115.46 50.23
  Z"
/>
<path fill="#15171c" d="
  M 243.62 36.06
  A 1.41 1.41 0.0 0 1 245.54 35.55
  L 254.63 40.84
  A 10.70 10.21 30.2 0 1 258.74 55.05
  L 255.35 60.87
  A 10.70 10.21 30.2 0 1 240.97 64.31
  L 231.88 59.03
  A 1.41 1.41 0.0 0 1 231.37 57.10
  L 243.62 36.06
  Z
  M 246.89 45.43
  L 241.13 55.13
  A 1.36 1.36 0.0 0 0 241.61 57.00
  L 243.42 58.07
  A 4.47 4.23 -59.3 0 0 249.34 56.39
  L 251.92 52.04
  A 4.47 4.23 -59.3 0 0 250.57 46.04
  L 248.75 44.96
  A 1.36 1.36 0.0 0 0 246.89 45.43
  Z"
/>
<rect fill="#15171c" x="-6.13" y="-3.25" transform="translate(144.27,39.90) rotate(-13.3)" width="12.26" height="6.50" rx="1.74"/>
<path fill="#15171c" d="
  M 68.60 64.63
  A 1.64 1.64 0.0 0 1 68.78 62.32
  L 76.60 55.67
  A 10.93 10.59 -40.4 0 1 91.79 56.65
  L 95.64 61.17
  A 10.93 10.59 -40.4 0 1 94.18 76.32
  L 86.36 82.98
  A 1.64 1.64 0.0 0 1 84.05 82.79
  L 68.60 64.63
  Z
  M 78.55 64.74
  L 85.48 72.91
  A 1.60 1.60 0.0 0 0 87.74 73.10
  L 89.48 71.62
  A 3.89 3.85 -40.3 0 0 89.96 66.17
  L 85.94 61.42
  A 3.89 3.85 -40.3 0 0 80.48 61.00
  L 78.73 62.48
  A 1.60 1.60 0.0 0 0 78.55 64.74
  Z"
/>
<rect fill="#15171c" x="-3.77" y="-13.56" transform="translate(271.78,69.74) rotate(42.5)" width="7.54" height="27.12" rx="1.53"/>
<path fill="#181418" d="
  M 284.49 174.16
  A 108.37 108.37 0.0 0 1 176.12 282.53
  A 108.37 108.37 0.0 0 1 67.75 174.16
  A 108.37 108.37 0.0 0 1 176.12 65.79
  A 108.37 108.37 0.0 0 1 284.49 174.16
  Z
  M 279.52 174.18
  A 103.38 103.38 0.0 0 0 176.14 70.80
  A 103.38 103.38 0.0 0 0 72.76 174.18
  A 103.38 103.38 0.0 0 0 176.14 277.56
  A 103.38 103.38 0.0 0 0 279.52 174.18
  Z"
/>
<path fill="#15171c" d="
  M 290.52 89.03
  A 0.21 0.21 0.0 0 0 290.21 88.76
  L 279.44 96.79
  Q 278.38 97.57 277.58 96.53
  L 275.07 93.26
  A 1.87 1.86 -36.1 0 1 275.49 90.58
  L 295.66 76.76
  A 1.17 1.16 56.3 0 1 297.29 77.09
  L 300.46 81.98
  A 0.48 0.47 -49.4 0 1 300.49 82.42
  L 294.29 97.00
  A 0.35 0.35 0.0 0 0 294.86 97.38
  Q 299.18 93.03 304.49 89.89
  Q 305.61 89.24 306.36 90.28
  L 308.66 93.48
  A 1.56 1.56 0.0 0 1 308.29 95.67
  L 287.98 110.00
  A 0.74 0.73 -35.6 0 1 286.97 109.84
  L 283.80 105.55
  Q 283.40 105.02 283.61 104.39
  Q 286.25 96.32 290.52 89.03
  Z"
/>
<path fill="#11181f" d="
  M 272.29 174.18
  A 96.21 96.21 0.0 0 1 176.08 270.39
  A 96.21 96.21 0.0 0 1 79.87 174.18
  A 96.21 96.21 0.0 0 1 176.08 77.97
  A 96.21 96.21 0.0 0 1 272.29 174.18
  Z
  M 191.81 175.10
  A 0.98 0.98 0.0 0 1 191.81 173.72
  L 200.92 164.58
  A 2.68 2.67 67.4 0 0 201.69 162.70
  L 201.73 95.46
  A 1.78 1.77 -82.6 0 0 200.41 93.74
  Q 176.48 87.30 152.65 94.05
  A 1.49 1.47 82.3 0 0 151.57 95.48
  Q 151.59 174.51 151.74 252.75
  Q 151.74 254.22 153.52 254.65
  Q 177.34 260.49 199.92 255.03
  Q 201.74 254.59 201.74 252.50
  Q 201.71 219.04 201.73 186.09
  A 2.76 2.75 22.4 0 0 200.91 184.13
  L 191.81 175.10
  Z
  M 107.55 166.14
  A 0.78 0.77 4.1 0 1 106.77 165.25
  Q 109.04 149.88 117.37 136.84
  A 1.14 1.14 0.0 0 0 117.01 135.25
  L 105.49 128.20
  A 1.54 1.54 0.0 0 0 103.37 128.71
  C 85.97 157.27 85.77 191.75 103.47 220.02
  A 1.45 1.44 -32.2 0 0 105.47 220.47
  L 116.77 213.24
  A 1.39 1.39 0.0 0 0 117.19 211.32
  Q 108.88 198.42 106.79 183.17
  A 0.78 0.78 0.0 0 1 107.57 182.29
  L 115.71 182.37
  A 1.18 1.14 67.0 0 1 116.49 182.70
  L 124.76 190.82
  A 3.13 3.11 22.3 0 1 125.70 193.05
  L 125.77 243.30
  A 1.47 1.47 0.0 0 0 126.48 244.56
  L 140.18 252.70
  A 1.02 1.02 0.0 0 0 141.72 251.82
  Q 141.70 220.86 141.74 189.89
  C 141.74 188.41 142.04 185.23 140.88 184.14
  Q 135.96 179.52 131.44 174.95
  A 0.93 0.93 0.0 0 1 131.43 173.65
  L 140.69 164.14
  A 3.57 3.57 0.0 0 0 141.70 161.65
  L 141.74 96.29
  A 0.64 0.63 -12.0 0 0 140.85 95.72
  Q 133.21 99.05 126.43 103.92
  A 1.64 1.64 0.0 0 0 125.76 105.24
  L 125.69 155.71
  A 2.73 2.70 -22.5 0 1 124.88 157.64
  L 116.41 165.89
  A 0.58 0.58 0.0 0 1 116.00 166.06
  L 107.55 166.14
  Z
  M 227.16 220.04
  L 227.38 207.07
  A 0.84 0.84 0.0 0 0 226.54 206.22
  L 212.40 206.20
  A 0.90 0.90 0.0 0 0 211.50 207.10
  L 211.51 252.01
  A 0.58 0.58 0.0 0 0 212.38 252.51
  C 234.32 239.63 250.90 223.79 258.54 198.87
  A 1.78 1.76 37.9 0 0 258.35 197.41
  L 227.86 148.40
  A 3.65 3.64 29.0 0 1 227.30 146.46
  L 227.22 127.78
  A 0.43 0.43 0.0 0 1 227.96 127.49
  Q 237.47 137.57 242.27 150.54
  A 1.23 1.22 70.7 0 0 243.80 151.28
  L 256.51 147.04
  A 1.25 1.24 -19.5 0 0 257.29 145.42
  Q 247.34 119.20 224.57 103.97
  Q 218.45 99.87 212.60 95.92
  A 0.71 0.70 17.0 0 0 211.50 96.50
  L 211.56 150.71
  A 4.67 4.64 -61.0 0 0 212.25 153.15
  L 241.03 199.74
  A 1.16 1.15 -49.7 0 1 241.11 200.81
  Q 236.44 211.78 228.37 220.53
  Q 227.13 221.87 227.16 220.04
  Z"
/>
<path fill="#15171c" d="
  M 70.0987 103.8489
  A 10.07 10.07 0.0 0 1 56.0870 106.3953
  L 49.5921 101.8980
  A 10.07 10.07 0.0 0 1 47.0458 87.8863
  L 48.9813 85.0911
  A 10.07 10.07 0.0 0 1 62.9930 82.5447
  L 69.4879 87.0420
  A 10.07 10.07 0.0 0 1 72.0342 101.0537
  L 70.0987 103.8489
  Z
  M 66.1151 98.0239
  A 3.53 3.53 0.0 0 0 65.1797 93.1202
  L 58.7781 88.7696
  A 3.53 3.53 0.0 0 0 53.8743 89.7051
  L 53.0649 90.8961
  A 3.53 3.53 0.0 0 0 54.0003 95.7998
  L 60.4019 100.1504
  A 3.53 3.53 0.0 0 0 65.3057 99.2149
  L 66.1151 98.0239
  Z"
/>
<path fill="#11181f" d="
  M 174.67 166.60
  Q 171.52 166.87 168.03 166.56
  A 0.89 0.89 0.0 0 1 167.22 165.67
  L 167.21 107.96
  A 1.25 1.25 0.0 0 1 168.30 106.72
  Q 176.53 105.62 184.79 106.58
  A 1.43 1.43 0.0 0 1 186.06 108.00
  L 186.11 156.52
  A 1.71 1.67 65.0 0 1 185.74 157.58
  Q 182.41 161.68 178.47 164.99
  Q 176.78 166.41 174.67 166.60
  Z"
/>
<path fill="#15171c" d="
  M 46.75 132.49
  C 50.63 132.65 51.11 126.72 48.64 124.36
  A 0.86 0.86 0.0 0 1 48.43 123.45
  C 49.03 121.83 51.28 118.98 52.93 118.64
  A 1.11 1.08 -26.4 0 1 53.95 118.97
  Q 59.40 124.80 55.71 132.97
  C 51.27 142.81 43.73 140.16 35.75 136.94
  C 23.62 132.03 28.62 115.13 39.49 113.93
  A 1.60 1.59 -3.1 0 1 41.26 115.51
  L 41.25 120.19
  A 0.94 0.94 0.0 0 1 40.73 121.03
  C 39.59 121.58 38.18 121.81 37.29 122.58
  C 34.74 124.76 34.71 128.72 38.24 130.10
  Q 44.05 132.37 46.75 132.49
  Z"
/>
<path fill="#15171c" d="
  M 306.54 131.68
  L 305.68 128.70
  A 1.06 1.05 51.7 0 1 305.77 127.90
  C 306.68 126.27 310.69 125.06 311.44 127.04
  Q 313.03 131.26 314.65 136.15
  Q 315.01 137.23 313.98 137.72
  C 310.70 139.29 305.85 141.07 302.42 139.63
  C 297.77 137.68 295.04 131.36 295.10 126.73
  C 295.21 118.58 301.40 117.29 307.48 115.32
  C 313.07 113.52 318.00 113.99 321.14 119.18
  C 324.28 124.36 324.68 130.77 319.94 135.28
  A 1.22 1.21 -42.0 0 1 318.18 135.19
  L 314.81 131.28
  A 0.78 0.77 41.5 0 1 314.75 130.36
  C 315.74 128.84 316.81 127.74 316.67 125.84
  C 316.10 118.15 306.93 123.53 303.31 124.61
  A 1.39 1.38 -88.2 0 0 302.42 125.45
  Q 300.74 130.00 304.90 132.86
  A 1.07 1.07 0.0 0 0 306.54 131.68
  Z"
/>
<path fill="#210e12" d="
  M 33.19 199.31
  Q 28.77 173.61 33.48 147.91
  Q 33.60 147.25 34.26 147.18
  L 36.58 146.94
  A 0.74 0.73 2.3 0 1 37.38 147.80
  Q 32.59 174.22 37.44 200.63
  Q 37.54 201.18 37.04 201.41
  Q 35.44 202.16 34.29 201.41
  Q 33.46 200.87 33.19 199.31
  Z"
/>
<path fill="#210e12" d="
  M 314.81 200.85
  Q 319.91 174.43 314.84 148.01
  A 0.72 0.71 -6.1 0 1 315.53 147.16
  L 318.23 147.10
  Q 318.79 147.09 318.89 147.64
  Q 323.47 174.22 318.84 200.76
  Q 318.71 201.50 317.97 201.49
  L 315.31 201.47
  Q 314.69 201.46 314.81 200.85
  Z"
/>
<path fill="#11181f" d="
  M 185.34 190.56
  A 2.56 2.56 0.0 0 1 186.09 192.37
  L 186.06 240.26
  A 1.28 1.27 -4.2 0 1 184.97 241.52
  Q 176.35 242.76 167.76 241.38
  A 0.69 0.69 0.0 0 1 167.19 240.70
  L 167.24 182.86
  A 0.90 0.90 0.0 0 1 168.14 181.96
  L 176.46 181.99
  A 0.99 0.96 67.5 0 1 177.16 182.29
  L 185.34 190.56
  Z"
/>
<path fill="#15171c" d="
  M 34.88 220.99
  Q 34.76 226.25 39.83 227.17
  A 0.75 0.73 86.6 0 1 40.40 227.69
  Q 41.28 230.79 40.38 233.88
  A 0.79 0.77 -82.3 0 1 39.65 234.45
  C 32.92 234.62 29.24 228.99 28.38 222.98
  C 27.20 214.80 32.77 212.29 39.17 210.06
  C 45.18 207.96 51.00 207.65 54.41 213.80
  C 57.31 219.02 57.98 225.24 53.07 229.60
  A 1.53 1.53 0.0 0 1 50.86 229.40
  L 47.93 225.66
  A 0.90 0.90 0.0 0 1 47.84 224.70
  C 48.47 223.49 49.53 222.40 49.68 221.09
  Q 50.07 217.57 47.03 215.85
  A 1.17 1.14 -39.0 0 0 46.08 215.76
  L 36.25 219.13
  A 2.01 2.01 0.0 0 0 34.88 220.99
  Z"
/>
<path fill="#15171c" d="
  M 314.80 220.01
  L 313.70 222.76
  A 0.87 0.86 -78.9 0 1 312.90 223.30
  Q 310.43 223.27 308.40 221.90
  Q 307.79 221.49 308.03 220.79
  L 311.41 211.27
  Q 311.92 209.82 313.38 210.31
  C 319.60 212.39 324.90 214.13 323.93 222.25
  C 323.10 229.32 318.63 236.00 310.53 233.86
  C 303.27 231.95 295.30 229.75 295.53 221.50
  C 295.71 215.15 300.13 208.32 307.29 208.69
  A 0.88 0.88 0.0 0 1 308.12 209.58
  L 308.02 214.95
  A 0.74 0.74 0.0 0 1 307.50 215.64
  C 303.76 216.73 301.21 218.57 302.87 222.98
  A 0.98 0.97 89.2 0 0 303.46 223.56
  L 313.10 227.14
  A 1.12 1.10 41.2 0 0 313.99 227.09
  Q 318.23 224.89 317.04 220.16
  A 1.18 1.18 0.0 0 0 314.80 220.01
  Z"
/>
<path fill="#15171c" d="
  M 290.18 258.51
  Q 287.22 257.97 289.86 259.42
  Q 295.16 262.33 299.85 266.14
  A 1.38 1.37 37.1 0 1 300.11 268.00
  L 297.56 271.66
  A 1.11 1.11 0.0 0 1 296.01 271.94
  L 275.78 257.71
  A 1.14 1.14 0.0 0 1 275.44 256.22
  C 276.52 254.26 278.11 250.95 280.75 251.05
  Q 288.37 251.34 295.94 252.23
  A 0.29 0.29 0.0 0 0 296.10 251.68
  Q 289.95 248.83 284.68 244.54
  A 1.09 1.08 -52.4 0 1 284.49 243.05
  L 287.30 239.29
  A 1.22 1.22 0.0 0 1 288.97 239.02
  L 308.63 252.82
  Q 309.36 253.33 309.23 254.20
  Q 308.79 256.99 306.63 258.44
  Q 305.12 259.45 302.23 259.47
  Q 295.51 259.50 290.18 258.51
  Z"
/>
<path fill="#15171c" d="
  M 71.4433 247.3617
  A 9.99 9.99 0.0 0 1 69.1845 261.3079
  L 62.6635 266.0110
  A 9.99 9.99 0.0 0 1 48.7173 263.7522
  L 46.7167 260.9783
  A 9.99 9.99 0.0 0 1 48.9755 247.0321
  L 55.4965 242.3290
  A 9.99 9.99 0.0 0 1 69.4427 244.5878
  L 71.4433 247.3617
  Z
  M 64.9786 249.4620
  A 3.82 3.82 0.0 0 0 59.6601 248.5146
  L 53.5909 252.7485
  A 3.82 3.82 0.0 0 0 52.6435 258.0671
  L 53.1814 258.8380
  A 3.82 3.82 0.0 0 0 58.4999 259.7854
  L 64.5691 255.5515
  A 3.82 3.82 0.0 0 0 65.5165 250.2329
  L 64.9786 249.4620
  Z"
/>
<path fill="#15171c" d="
  M 83.76 266.04
  A 1.59 1.59 0.0 0 1 86.00 265.85
  L 93.87 272.53
  A 10.75 10.45 40.3 0 1 95.31 287.45
  L 91.31 292.16
  A 10.75 10.45 40.3 0 1 76.35 293.18
  L 68.48 286.51
  A 1.59 1.59 0.0 0 1 68.30 284.27
  L 83.76 266.04
  Z
  M 90.5560 281.1999
  A 2.18 2.18 0.0 0 0 90.2766 278.1296
  L 87.7873 276.0556
  A 2.18 2.18 0.0 0 0 84.7170 276.3351
  L 78.7640 283.4801
  A 2.18 2.18 0.0 0 0 79.0434 286.5504
  L 81.5327 288.6244
  A 2.18 2.18 0.0 0 0 84.6030 288.3449
  L 90.5560 281.1999
  Z"
/>
<rect fill="#15171c" x="-3.78" y="-13.48" transform="translate(272.19,278.98) rotate(-42.5)" width="7.56" height="26.96" rx="1.54"/>
<path fill="#15171c" d="
  M 231.69 291.77
  A 1.36 1.36 0.0 0 1 232.18 289.91
  L 241.51 284.48
  A 10.49 10.08 -30.2 0 1 255.64 287.91
  L 259.04 293.76
  A 10.49 10.08 -30.2 0 1 255.05 307.75
  L 245.72 313.17
  A 1.36 1.36 0.0 0 1 243.86 312.68
  L 231.69 291.77
  Z
  M 241.41 293.80
  L 247.05 303.45
  A 1.38 1.38 0.0 0 0 248.94 303.95
  L 250.86 302.83
  A 4.20 4.03 -30.3 0 0 252.45 297.23
  L 249.48 292.15
  A 4.20 4.03 -30.3 0 0 243.82 290.79
  L 241.91 291.91
  A 1.38 1.38 0.0 0 0 241.41 293.80
  Z"
/>
<path fill="#15171c" d="
  M 111.72 304.54
  C 109.65 305.77 109.99 307.49 112.04 308.44
  Q 116.07 310.31 120.18 312.33
  A 0.74 0.73 26.4 0 1 120.52 313.32
  L 118.49 317.37
  A 1.41 1.40 -63.9 0 1 116.63 318.01
  L 101.89 310.90
  Q 100.38 310.18 101.10 308.67
  L 111.30 287.21
  Q 112.04 285.67 113.58 286.40
  L 128.28 293.39
  A 0.90 0.89 -75.5 0 1 128.79 294.26
  Q 128.59 297.13 126.65 299.23
  A 0.99 0.98 -55.7 0 1 125.52 299.45
  L 116.98 295.43
  A 1.38 1.38 0.0 0 0 115.14 296.09
  C 114.56 297.30 114.65 298.26 115.99 298.89
  Q 119.10 300.35 122.20 301.89
  A 0.92 0.92 0.0 0 1 122.70 302.85
  Q 122.46 304.36 121.52 305.59
  A 1.31 1.15 -22.8 0 0 121.31 306.02
  Q 120.70 308.43 118.26 307.20
  Q 114.70 305.42 112.61 304.49
  Q 112.15 304.28 111.72 304.54
  Z"
/>
<path fill="#15171c" d="
  M 224.6172 311.9982
  A 10.08 10.08 0.0 0 1 217.4036 324.2936
  L 214.2295 325.1204
  A 10.08 10.08 0.0 0 1 201.9341 317.9067
  L 199.9428 310.2618
  A 10.08 10.08 0.0 0 1 207.1564 297.9664
  L 210.3305 297.1396
  A 10.08 10.08 0.0 0 1 222.6259 304.3533
  L 224.6172 311.9982
  Z
  M 215.4091 306.3562
  A 3.75 3.75 0.0 0 0 210.8025 303.7286
  L 209.7994 304.0030
  A 3.75 3.75 0.0 0 0 207.1718 308.6096
  L 209.1509 315.8438
  A 3.75 3.75 0.0 0 0 213.7575 318.4714
  L 214.7606 318.1970
  A 3.75 3.75 0.0 0 0 217.3882 313.5904
  L 215.4091 306.3562
  Z"
/>
<path fill="#15171c" d="
  M 173.54 322.92
  C 176.50 324.31 178.59 322.68 180.48 319.97
  A 0.77 0.77 0.0 0 1 181.37 319.69
  L 186.35 321.43
  Q 186.84 321.60 186.94 322.11
  Q 187.33 324.19 185.58 325.87
  Q 180.47 330.80 173.00 329.61
  C 163.67 328.12 163.95 321.10 163.98 313.34
  C 164.02 303.77 171.60 300.20 179.86 302.23
  Q 184.30 303.33 186.94 307.86
  A 1.79 1.78 65.9 0 1 185.95 310.46
  L 181.18 312.00
  A 0.74 0.73 68.9 0 1 180.29 311.60
  Q 178.48 307.52 174.05 308.60
  Q 172.07 309.09 171.88 311.01
  C 171.57 313.97 170.41 321.44 173.54 322.92
  Z"
/>
<rect fill="#15171c" x="-6.03" y="-3.15" transform="translate(142.63,315.68) rotate(13.1)" width="12.06" height="6.30" rx="1.77"/>
</svg>
